<?xml version="1.0" encoding="UTF-8"?>
<svg id="Layer_2" xmlns="http://www.w3.org/2000/svg" viewBox="0 0 140 200">
  <defs>
    <style>
      .cls-1{fill:#455660;}
      .cls-1,.cls-2,.cls-3{stroke-width:0px;}
      .cls-2{fill:#ffbb3a;}
      .cls-3{fill:#9a9a9a;}
    </style>
  </defs>
  <g id="Layer_1-2">
    <path class="cls-3" d="m39.08,38.07v118.26c0,7.61-8.58,12.07-14.81,7.69l-20.28-14.24c-2.51-1.76-4-4.63-4-7.69V51.57c0-3.15,1.57-6.08,4.19-7.83l20.28-13.5c6.25-4.16,14.61.32,14.61,7.83Z"/>
    <path class="cls-2" d="m134.16,47.77v29.6c0,3.08-1.5,5.97-4.02,7.74l-54.65,38.49c-6.27,4.42-14.92-.07-14.92-7.74v-34.25c0-7.64,8.58-12.13,14.85-7.78l.82.57c3.26,2.26,7.59,2.24,10.84-.04l6.42-4.52c5.17-3.64,5.39-11.23.43-15.16l-39.37-31.2c-4.97-3.94-4.74-11.55.46-15.18l9.42-6.58c3.26-2.27,7.59-2.27,10.84,0l54.84,38.3c2.54,1.77,4.05,4.67,4.05,7.76Z"/>
    <path class="cls-3" d="m134.16,119.59v29.09c0,2.44-1.18,4.74-3.17,6.16l-48.26,34.35-7.24,4.82c-2.59,1.72-5.97,1.69-8.52-.09l-13.92-9.72c-4.31-3.01-4.31-9.38,0-12.39l41.2-28.79c4.03-2.81,4.34-8.67.63-11.89h0c-3.71-3.23-3.39-9.1.65-11.9l17.32-12.03c2.53-1.76,5.89-1.8,8.46-.11l9.42,6.2c2.12,1.4,3.4,3.77,3.4,6.31Z"/>
  </g>
</svg>
