<?xml version="1.0" encoding="UTF-8"?><svg id="Layer_2" xmlns="http://www.w3.org/2000/svg" viewBox="0 0 496.41 118.24"><defs><style>.cls-1{fill:#ffbb3a;}.cls-1,.cls-2,.cls-3{stroke-width:0px;}.cls-2{fill:#fff;}.cls-3{fill:#9a9a9a;}</style></defs><g id="Layer_1-2"><path class="cls-2" d="m164.88,53.86c3.91,1.42,6.98,3.73,9.2,6.93,2.23,3.2,3.34,6.69,3.34,10.47,0,6.61-2.21,11.75-6.62,15.42-4.42,3.68-10.91,5.51-19.47,5.51h-35.2V20.18h34.19c7.96,0,13.97,1.69,18.05,5.06,4.08,3.37,6.12,7.82,6.12,13.35,0,7.15-3.2,12.24-9.61,15.27Zm-15.68-20.03h-15.98v15.37h15.98c2.63,0,4.67-.71,6.12-2.12,1.45-1.42,2.18-3.34,2.18-5.77,0-2.29-.73-4.11-2.18-5.46-1.45-1.35-3.49-2.02-6.12-2.02Zm-15.98,44.71h17.09c3.03,0,5.38-.71,7.03-2.12,1.65-1.42,2.48-3.44,2.48-6.07,0-5.46-3.17-8.19-9.51-8.19h-17.09v16.39Z"/><path class="cls-2" d="m236.79,67.61v3.14h-38.64c.54,3.57,1.85,6.31,3.94,8.19,2.09,1.89,4.75,2.83,7.99,2.83,5.12,0,8.63-1.96,10.52-5.87h14.97c-1.41,5.4-4.42,9.66-9,12.79-4.59,3.14-10.08,4.7-16.49,4.7-8.09,0-14.63-2.49-19.62-7.48-4.99-4.99-7.48-11.6-7.48-19.82s2.46-14.9,7.38-19.82c4.86-4.99,11.36-7.48,19.52-7.48s14.63,2.6,19.62,7.79c4.85,5.26,7.28,12.27,7.28,21.04Zm-27.11-17.19c-6.47,0-10.28,3.44-11.43,10.32h23.06c-.54-3.24-1.82-5.77-3.84-7.59-2.02-1.82-4.62-2.73-7.79-2.73Z"/><path class="cls-2" d="m274.32,47.89l2.73-7.89h16.18l-18.61,52.19h-18.81l-18.61-52.19h16.99l2.73,7.89c1.42,4.99,2.8,9.86,4.15,14.62,1.35,4.75,2.39,8.46,3.14,11.13.74,2.66,1.21,4.37,1.42,5.11.2-.74.67-2.44,1.42-5.11.74-2.66,1.79-6.37,3.14-11.13,1.35-4.75,2.73-9.62,4.15-14.62Z"/><path class="cls-2" d="m331.66,93.81c-10.72,0-19.39-3.4-25.99-10.22-6.61-6.81-9.91-15.95-9.91-27.41s3.24-20.77,9.71-27.51c6.47-6.74,15.2-10.11,26.2-10.11,8.9,0,16.45,2.36,22.66,7.08,6.34,4.79,10.15,11.56,11.43,20.33h-17.3c-1.08-4.05-3.08-7.16-6.02-9.36-2.93-2.19-6.52-3.29-10.77-3.29-5.8,0-10.27,1.99-13.4,5.97-3.13,3.98-4.7,9.61-4.7,16.89s1.57,12.91,4.7,16.89c3.14,3.98,7.6,5.97,13.4,5.97,4.45,0,8.23-1.28,11.33-3.84,3.1-2.56,5.06-6.14,5.87-10.72h17.09c-1.08,9.31-4.75,16.52-11.02,21.64-6.34,5.12-14.09,7.69-23.26,7.69Z"/><path class="cls-2" d="m398.11,93.41c-8.29,0-14.94-2.49-19.92-7.48-4.99-4.99-7.48-11.6-7.48-19.82s2.49-14.93,7.48-19.93c4.92-4.92,11.56-7.38,19.92-7.38s15,2.46,19.93,7.38c4.92,4.92,7.38,11.57,7.38,19.93s-2.46,14.9-7.38,19.82c-4.99,4.99-11.63,7.48-19.93,7.48Zm0-12.64c3.64,0,6.44-1.25,8.4-3.74,1.95-2.49,2.93-6.13,2.93-10.92s-.98-8.43-2.93-10.92c-1.96-2.49-4.75-3.74-8.4-3.74s-6.54,1.25-8.5,3.74c-1.96,2.5-2.93,6.14-2.93,10.92s.98,8.43,2.93,10.92c1.96,2.5,4.79,3.74,8.5,3.74Z"/><path class="cls-2" d="m464.16,38.79c5.53,0,9.93,1.67,13.2,5.01,3.27,3.34,4.91,8.08,4.91,14.21v34.19h-15.78v-31.05c0-5.93-2.8-8.9-8.39-8.9-2.83,0-5.19.95-7.08,2.83-1.89,1.89-2.83,4.55-2.83,7.99v29.13h-15.78v-52.19h15.37v7.38c4.04-5.73,9.51-8.6,16.38-8.6Z"/><path class="cls-2" d="m489.35,15.89c1.96,0,3.63.66,5.01,1.99,1.36,1.31,2.05,2.94,2.05,4.88s-.68,3.51-2.05,4.82c-1.38,1.33-3.05,1.99-5.01,1.99s-3.66-.66-5.04-1.99c-1.37-1.31-2.05-2.92-2.05-4.82s.68-3.57,2.05-4.88c1.38-1.33,3.06-1.99,5.04-1.99Zm0,12.15c1.51,0,2.79-.5,3.85-1.51,1.02-.99,1.54-2.24,1.54-3.77s-.51-2.8-1.54-3.83c-1.06-1.01-2.34-1.51-3.85-1.51s-2.81.5-3.85,1.51c-1.04,1.02-1.56,2.3-1.56,3.83s.52,2.78,1.56,3.77c1.04,1.01,2.33,1.51,3.85,1.51Zm2.91-3.69l.05.94c.04.41.13.7.3.86h-1.94c-.13-.23-.2-.52-.22-.86l-.05-.73c-.02-.34-.09-.57-.2-.69-.12-.12-.33-.18-.63-.18h-1.16v2.45h-1.83v-6.92h3.26c.81,0,1.44.18,1.89.54.45.36.67.86.67,1.51,0,.72-.32,1.24-.97,1.56.54.25.82.75.84,1.51Zm-3.85-3.58v1.51h1.24c.56,0,.84-.25.84-.75s-.29-.75-.86-.75h-1.21Z"/><path class="cls-3" d="m23.66,23.05v71.6c0,4.61-5.19,7.31-8.96,4.66l-12.28-8.62c-1.52-1.07-2.42-2.8-2.42-4.66V31.22c0-1.9.95-3.68,2.54-4.74l12.28-8.17c3.78-2.52,8.85.19,8.85,4.74Z"/><path class="cls-1" d="m81.23,28.92v17.92c0,1.86-.91,3.61-2.43,4.69l-33.09,23.31c-3.8,2.67-9.03-.04-9.03-4.69v-20.74c0-4.62,5.19-7.34,8.99-4.71l.5.34c1.98,1.37,4.6,1.36,6.56-.03l3.89-2.74c3.13-2.2,3.26-6.8.26-9.18l-23.84-18.89c-3.01-2.38-2.87-6.99.28-9.19l5.7-3.98c1.97-1.38,4.59-1.38,6.56,0l33.2,23.19c1.54,1.07,2.45,2.83,2.45,4.7Z"/><path class="cls-3" d="m81.23,72.41v17.62c0,1.48-.72,2.87-1.92,3.73l-29.22,20.8-4.38,2.92c-1.57,1.04-3.61,1.02-5.16-.06l-8.43-5.89c-2.61-1.82-2.61-5.68,0-7.5l24.95-17.43c2.44-1.7,2.63-5.25.38-7.2h0c-2.25-1.96-2.05-5.51.39-7.21l10.49-7.29c1.53-1.07,3.56-1.09,5.12-.06l5.71,3.75c1.29.85,2.06,2.28,2.06,3.82Z"/></g></svg>