<?xml version="1.0" encoding="UTF-8"?><svg id="Layer_2" xmlns="http://www.w3.org/2000/svg" viewBox="0 0 819.86 195.28"><defs><style>.cls-1{fill:#455660;}.cls-1,.cls-2,.cls-3{stroke-width:0px;}.cls-2{fill:#ffbb3a;}.cls-3{fill:#9a9a9a;}</style></defs><g id="Layer_1-2"><path class="cls-1" d="m272.31,88.95c6.46,2.34,11.53,6.15,15.2,11.44,3.68,5.29,5.51,11.05,5.51,17.29,0,10.92-3.65,19.41-10.94,25.48-7.3,6.07-18.02,9.1-32.16,9.1h-58.13V33.33h56.46c13.14,0,23.08,2.79,29.82,8.35,6.74,5.57,10.11,12.92,10.11,22.05,0,11.81-5.29,20.21-15.87,25.22Zm-25.89-33.08h-26.39v25.39h26.39c4.34,0,7.71-1.17,10.11-3.51,2.39-2.34,3.59-5.51,3.59-9.52,0-3.78-1.2-6.79-3.59-9.02-2.4-2.23-5.76-3.34-10.11-3.34Zm-26.39,73.84h28.23c5.01,0,8.88-1.17,11.61-3.51,2.73-2.34,4.09-5.68,4.09-10.02,0-9.02-5.24-13.53-15.7-13.53h-28.23v27.06Z"/><path class="cls-1" d="m391.08,111.67v5.18h-63.81c.89,5.9,3.06,10.41,6.52,13.53,3.45,3.12,7.85,4.68,13.2,4.68,8.46,0,14.26-3.23,17.37-9.69h24.72c-2.34,8.91-7.29,15.95-14.87,21.13-7.57,5.18-16.65,7.77-27.23,7.77-13.36,0-24.17-4.12-32.41-12.36-8.24-8.24-12.36-19.15-12.36-32.74s4.06-24.61,12.19-32.74c8.02-8.24,18.76-12.36,32.24-12.36s24.17,4.29,32.41,12.86c8.02,8.69,12.03,20.27,12.03,34.75Zm-44.77-28.4c-10.69,0-16.98,5.68-18.88,17.04h38.09c-.89-5.35-3.01-9.52-6.35-12.53-3.34-3.01-7.63-4.51-12.86-4.51Z"/><path class="cls-1" d="m453.06,79.1l4.51-13.03h26.73l-30.74,86.2h-31.07l-30.74-86.2h28.06l4.51,13.03c2.34,8.24,4.62,16.29,6.85,24.14,2.23,7.85,3.95,13.98,5.18,18.38,1.22,4.4,2,7.21,2.34,8.44.33-1.22,1.11-4.04,2.34-8.44,1.22-4.4,2.95-10.52,5.18-18.38,2.22-7.85,4.51-15.9,6.85-24.14Z"/><path class="cls-1" d="m547.77,154.94c-17.71,0-32.02-5.62-42.93-16.87-10.92-11.25-16.37-26.34-16.37-45.27s5.34-34.3,16.04-45.44c10.69-11.13,25.11-16.7,43.27-16.7,14.7,0,27.17,3.9,37.42,11.69,10.47,7.91,16.76,19.1,18.88,33.58h-28.57c-1.78-6.68-5.09-11.83-9.94-15.45-4.84-3.62-10.77-5.43-17.79-5.43-9.58,0-16.96,3.29-22.13,9.86-5.18,6.57-7.77,15.87-7.77,27.9s2.59,21.33,7.77,27.9c5.18,6.57,12.56,9.86,22.13,9.86,7.35,0,13.59-2.11,18.71-6.35,5.12-4.23,8.35-10.13,9.69-17.71h28.23c-1.78,15.37-7.85,27.29-18.21,35.75-10.47,8.46-23.28,12.7-38.42,12.7Z"/><path class="cls-1" d="m657.52,154.27c-13.7,0-24.67-4.12-32.91-12.36-8.24-8.24-12.36-19.15-12.36-32.74s4.12-24.67,12.36-32.91c8.13-8.13,19.1-12.19,32.91-12.19s24.78,4.07,32.91,12.19c8.13,8.13,12.19,19.1,12.19,32.91s-4.07,24.61-12.19,32.74c-8.24,8.24-19.21,12.36-32.91,12.36Zm0-20.88c6.01,0,10.64-2.06,13.87-6.18,3.23-4.12,4.84-10.13,4.84-18.04s-1.62-13.92-4.84-18.04c-3.23-4.12-7.85-6.18-13.87-6.18s-10.8,2.06-14.03,6.18c-3.23,4.12-4.84,10.13-4.84,18.04s1.61,13.92,4.84,18.04c3.23,4.12,7.91,6.18,14.03,6.18Z"/><path class="cls-1" d="m766.6,64.06c9.13,0,16.4,2.76,21.8,8.27,5.4,5.51,8.1,13.34,8.1,23.47v56.46h-26.06v-51.28c0-9.8-4.62-14.7-13.86-14.7-4.68,0-8.58,1.56-11.69,4.68-3.12,3.12-4.68,7.52-4.68,13.2v48.11h-26.06v-86.2h25.39v12.19c6.68-9.46,15.7-14.2,27.06-14.2Z"/><path class="cls-1" d="m808.21,26.25c3.23,0,5.99,1.1,8.28,3.29,2.25,2.17,3.38,4.85,3.38,8.05s-1.13,5.8-3.38,7.96c-2.28,2.2-5.04,3.29-8.28,3.29s-6.04-1.1-8.32-3.29c-2.25-2.17-3.38-4.82-3.38-7.96s1.13-5.89,3.38-8.05c2.28-2.19,5.06-3.29,8.32-3.29Zm0,20.07c2.49,0,4.61-.83,6.36-2.49,1.69-1.63,2.54-3.71,2.54-6.23s-.85-4.63-2.54-6.32c-1.75-1.66-3.87-2.49-6.36-2.49s-4.64.83-6.36,2.49c-1.72,1.69-2.58,3.8-2.58,6.32s.86,4.6,2.58,6.23c1.72,1.66,3.84,2.49,6.36,2.49Zm4.81-6.1l.09,1.56c.06.68.22,1.16.49,1.42h-3.2c-.21-.39-.33-.86-.36-1.42l-.09-1.2c-.03-.56-.14-.94-.33-1.13-.19-.19-.54-.29-1.05-.29h-1.91v4.05h-3.03v-11.44h5.38c1.33,0,2.37.3,3.11.89.74.59,1.11,1.42,1.11,2.49,0,1.19-.53,2.05-1.6,2.58.89.42,1.35,1.25,1.38,2.49Zm-6.36-5.92v2.49h2.05c.92,0,1.38-.42,1.38-1.25s-.47-1.25-1.42-1.25h-2Z"/><path class="cls-3" d="m39.08,38.07v118.26c0,7.61-8.58,12.07-14.81,7.69l-20.28-14.24c-2.51-1.76-4-4.63-4-7.69V51.57c0-3.15,1.57-6.08,4.19-7.83l20.28-13.5c6.25-4.16,14.61.32,14.61,7.83Z"/><path class="cls-2" d="m134.16,47.77v29.6c0,3.08-1.5,5.97-4.02,7.74l-54.65,38.49c-6.27,4.42-14.92-.07-14.92-7.74v-34.25c0-7.64,8.58-12.13,14.85-7.78l.82.57c3.26,2.26,7.59,2.24,10.84-.04l6.42-4.52c5.17-3.64,5.39-11.23.43-15.16l-39.37-31.2c-4.97-3.94-4.74-11.55.46-15.18l9.42-6.58c3.26-2.27,7.59-2.27,10.84,0l54.84,38.3c2.54,1.77,4.05,4.67,4.05,7.76Z"/><path class="cls-3" d="m134.16,119.59v29.09c0,2.44-1.18,4.74-3.17,6.16l-48.26,34.35-7.24,4.82c-2.59,1.72-5.97,1.69-8.52-.09l-13.92-9.72c-4.31-3.01-4.31-9.38,0-12.39l41.2-28.79c4.03-2.81,4.34-8.67.63-11.89h0c-3.71-3.23-3.39-9.1.65-11.9l17.32-12.03c2.53-1.76,5.89-1.8,8.46-.11l9.42,6.2c2.12,1.4,3.4,3.77,3.4,6.31Z"/></g></svg>